<svg width="22" height="20" viewBox="0 0 22 20" fill="none" xmlns="http://www.w3.org/2000/svg">
<path d="M21 14.5723V2.93554C21 1.77861 20.02 0.920549 18.83 1.01696H18.77C16.67 1.1905 13.48 2.2221 11.7 3.3019L11.53 3.40795C11.24 3.58149 10.76 3.58149 10.47 3.40795L10.22 3.26333C8.44 2.19317 5.26 1.17122 3.16 1.00732C1.97 0.910908 1 1.77861 1 2.9259V14.5723C1 15.4979 1.78 16.3656 2.74 16.4813L3.03 16.5198C5.2 16.7994 8.55 17.8599 10.47 18.8723L10.51 18.8915C10.78 19.0362 11.21 19.0362 11.47 18.8915C13.39 17.8696 16.75 16.7994 18.93 16.5198L19.26 16.4813C20.22 16.3656 21 15.4979 21 14.5723Z" stroke="#04261C" stroke-width="1.5" stroke-linecap="round" stroke-linejoin="round"/>
<path d="M11 3.72662V18.1883" stroke="#04261C" stroke-width="1.5" stroke-linecap="round" stroke-linejoin="round"/>
<path d="M6.75 6.61896H4.5" stroke="#04261C" stroke-width="1.5" stroke-linecap="round" stroke-linejoin="round"/>
<path d="M7.5 9.51129H4.5" stroke="#04261C" stroke-width="1.5" stroke-linecap="round" stroke-linejoin="round"/>
</svg>
