<svg width="16" height="16" viewBox="0 0 16 16" fill="none" xmlns="http://www.w3.org/2000/svg">
<path d="M5.12844 15H10.8716C13.7575 15 14.2744 13.873 14.4251 12.501L14.9635 6.90105C15.1574 5.19305 14.6548 3.80005 11.5894 3.80005H4.41055C1.34516 3.80005 0.842641 5.19305 1.03647 6.90105L1.57489 12.501C1.72565 13.873 2.24253 15 5.12844 15Z" stroke="white" stroke-width="1.5" stroke-miterlimit="10" stroke-linecap="round" stroke-linejoin="round"/>
<path d="M5.12891 3.8V3.24C5.12891 2.001 5.12891 1 7.42615 1H8.57478C10.872 1 10.872 2.001 10.872 3.24V3.8" stroke="white" stroke-width="1.5" stroke-miterlimit="10" stroke-linecap="round" stroke-linejoin="round"/>
<path d="M9.43601 8.7V9.4C9.43601 9.407 9.43601 9.407 9.43601 9.414C9.43601 10.177 9.42883 10.8 8.00023 10.8C6.57881 10.8 6.56445 10.184 6.56445 9.421V8.7C6.56445 8 6.56445 8 7.28234 8H8.71812C9.43601 8 9.43601 8 9.43601 8.7Z" stroke="white" stroke-width="1.5" stroke-miterlimit="10" stroke-linecap="round" stroke-linejoin="round"/>
<path d="M14.9274 7.30005C13.2691 8.47605 11.3738 9.17605 9.43555 9.41405" stroke="white" stroke-width="1.5" stroke-miterlimit="10" stroke-linecap="round" stroke-linejoin="round"/>
<path d="M1.26562 7.48901C2.88088 8.56701 4.70432 9.21801 6.56365 9.42101" stroke="white" stroke-width="1.5" stroke-miterlimit="10" stroke-linecap="round" stroke-linejoin="round"/>
</svg>
