<svg width="18" height="18" viewBox="0 0 18 18" fill="none" xmlns="http://www.w3.org/2000/svg">
<path d="M5.71822 17H12.2818C15.58 17 16.1707 15.712 16.343 14.144L16.9583 7.74395C17.1798 5.79195 16.6055 4.19995 13.1022 4.19995H4.89777C1.39447 4.19995 0.820161 5.79195 1.04168 7.74395L1.65702 14.144C1.82931 15.712 2.42003 17 5.71822 17Z" stroke="#04261C" stroke-width="1.5" stroke-miterlimit="10" stroke-linecap="round" stroke-linejoin="round"/>
<path d="M5.71875 4.2V3.56C5.71875 2.144 5.71875 1 8.34417 1H9.65689C12.2823 1 12.2823 2.144 12.2823 3.56V4.2" stroke="#04261C" stroke-width="1.5" stroke-miterlimit="10" stroke-linecap="round" stroke-linejoin="round"/>
<path d="M10.6412 9.8V10.6C10.6412 10.608 10.6412 10.608 10.6412 10.616C10.6412 11.488 10.633 12.2 9.00027 12.2C7.37578 12.2 7.35938 11.496 7.35938 10.624V9.8C7.35938 9 7.35938 9 8.17982 9H9.82071C10.6412 9 10.6412 9 10.6412 9.8Z" stroke="#04261C" stroke-width="1.5" stroke-miterlimit="10" stroke-linecap="round" stroke-linejoin="round"/>
<path d="M16.917 8.19995C15.0218 9.54395 12.8558 10.344 10.6406 10.616" stroke="#04261C" stroke-width="1.5" stroke-miterlimit="10" stroke-linecap="round" stroke-linejoin="round"/>
<path d="M1.30371 8.41602C3.14971 9.64802 5.23364 10.392 7.3586 10.624" stroke="#04261C" stroke-width="1.5" stroke-miterlimit="10" stroke-linecap="round" stroke-linejoin="round"/>
</svg>
