<svg width="16" height="14" viewBox="0 0 16 14" fill="none" xmlns="http://www.w3.org/2000/svg">
<path d="M3.84394 2.21143C2.7537 2.21143 1.87701 3.15342 1.87701 4.31142C1.87701 5.44542 2.71998 6.36942 3.77088 6.41142C3.81584 6.40542 3.86641 6.40542 3.91699 6.41142" stroke="white" stroke-width="1.5" stroke-linecap="round" stroke-linejoin="round"/>
<path d="M2.75977 11.8114C2.35514 11.7214 1.973 11.5474 1.65829 11.2894C0.781604 10.5874 0.781604 9.42942 1.65829 8.72742C1.96738 8.47543 2.3439 8.30743 2.74291 8.21143" stroke="white" stroke-width="1.5" stroke-linecap="round" stroke-linejoin="round"/>
<path d="M7.91559 5.8C7.96814 5.79459 8.03121 5.79459 8.08901 5.8C9.33976 5.75671 10.333 4.70147 10.333 3.40271C10.333 2.07689 9.29247 1 7.99967 1C6.71214 1 5.66634 2.07689 5.66634 3.40271C5.6716 4.70147 6.66484 5.75671 7.91559 5.8Z" stroke="white" stroke-width="1.5" stroke-linecap="round" stroke-linejoin="round"/>
<path d="M10.9963 8.45965C12.4452 9.47421 12.4452 11.1276 10.9963 12.1358C9.34981 13.2882 6.64954 13.2882 5.00303 12.1358C3.55411 11.1213 3.55411 9.46794 5.00303 8.45965C6.64355 7.31358 9.34382 7.31358 10.9963 8.45965Z" stroke="white" stroke-width="1.5" stroke-linecap="round" stroke-linejoin="round"/>
<path d="M12.1561 2.21143C13.2463 2.21143 14.123 3.15342 14.123 4.31142C14.123 5.44542 13.28 6.36942 12.2291 6.41142C12.1842 6.40542 12.1336 6.40542 12.083 6.41142" stroke="white" stroke-width="1.5" stroke-linecap="round" stroke-linejoin="round"/>
<path d="M13.2412 11.8114C13.6458 11.7214 14.028 11.5474 14.3427 11.2894C15.2193 10.5874 15.2193 9.42942 14.3427 8.72742C14.0336 8.47543 13.6571 8.30743 13.2581 8.21143" stroke="white" stroke-width="1.5" stroke-linecap="round" stroke-linejoin="round"/>
</svg>

