<svg width="22" height="18" viewBox="0 0 22 18" fill="none" xmlns="http://www.w3.org/2000/svg">
<path d="M5.06263 2.61523C3.50514 2.61523 2.25274 3.87123 2.25274 5.41523C2.25274 6.92723 3.45697 8.15922 4.95826 8.21522C5.02248 8.20722 5.09474 8.20722 5.16699 8.21522" stroke="#04261C" stroke-width="1.5" stroke-linecap="round" stroke-linejoin="round"/>
<path d="M3.51367 15.4152C2.93564 15.2952 2.38972 15.0632 1.94013 14.7192C0.687727 13.7832 0.687727 12.2392 1.94013 11.3032C2.38169 10.9672 2.91958 10.7432 3.48959 10.6152" stroke="#04261C" stroke-width="1.5" stroke-linecap="round" stroke-linejoin="round"/>
<path d="M10.8796 7.4C10.9546 7.39278 11.0447 7.39278 11.1273 7.4C12.9141 7.34228 14.333 5.93529 14.333 4.20361C14.333 2.43585 12.8465 1 10.9997 1C9.16033 1 7.66634 2.43585 7.66634 4.20361C7.67385 5.93529 9.09277 7.34228 10.8796 7.4Z" stroke="#04261C" stroke-width="1.5" stroke-linecap="round" stroke-linejoin="round"/>
<path d="M15.2806 10.9459C17.3505 12.2986 17.3505 14.5031 15.2806 15.8475C12.9284 17.3839 9.07091 17.3839 6.71876 15.8475C4.64887 14.4947 4.64887 12.2903 6.71876 10.9459C9.06236 9.41778 12.9199 9.41778 15.2806 10.9459Z" stroke="#04261C" stroke-width="1.5" stroke-linecap="round" stroke-linejoin="round"/>
<path d="M16.9374 2.61523C18.4948 2.61523 19.7472 3.87123 19.7472 5.41523C19.7472 6.92723 18.543 8.15922 17.0417 8.21522C16.9775 8.20722 16.9053 8.20722 16.833 8.21522" stroke="#04261C" stroke-width="1.5" stroke-linecap="round" stroke-linejoin="round"/>
<path d="M18.4873 15.4152C19.0653 15.2952 19.6112 15.0632 20.0608 14.7192C21.3132 13.7832 21.3132 12.2392 20.0608 11.3032C19.6193 10.9672 19.0814 10.7432 18.5114 10.6152" stroke="#04261C" stroke-width="1.5" stroke-linecap="round" stroke-linejoin="round"/>
</svg>
