<svg width="12" height="16" viewBox="0 0 12 16" fill="none" xmlns="http://www.w3.org/2000/svg">
<path d="M5.79073 6.6C5.85642 6.59369 5.93525 6.59369 6.00751 6.6C7.57095 6.54949 8.8125 5.31838 8.8125 3.80316C8.8125 2.25637 7.51182 1 5.89583 1C4.28641 1 2.97917 2.25637 2.97917 3.80316C2.98574 5.31838 4.22729 6.54949 5.79073 6.6Z" stroke="#04261C" stroke-width="1.5" stroke-linecap="round" stroke-linejoin="round"/>
<path d="M9.64163 9.70301C11.4528 10.8867 11.4528 12.8156 9.64163 13.9919C7.5835 15.3363 4.20817 15.3363 2.15003 13.9919C0.338878 12.8083 0.338878 10.8793 2.15003 9.70301C4.20068 8.36592 7.57602 8.36592 9.64163 9.70301Z" stroke="#04261C" stroke-width="1.5" stroke-linecap="round" stroke-linejoin="round"/>
</svg>
