<svg width="18" height="18" viewBox="0 0 18 18" fill="none" xmlns="http://www.w3.org/2000/svg">
<g id="icon/action/swap_horiz_24px">
<path id="Path" d="M9.10901 4.60173L7.01651 2.51673C6.86651 2.37423 6.63401 2.37423 6.48401 2.51673L4.39151 4.60173C4.15151 4.83423 4.32401 5.23923 4.654 5.23923L6.00401 5.23923L6.00401 9.74673C6.00401 10.1592 6.34151 10.4967 6.75401 10.4967C7.1665 10.4967 7.50401 10.1592 7.50401 9.74673L7.50401 5.23923L8.84651 5.23923C9.18401 5.23923 9.34901 4.83423 9.10901 4.60173Z" fill="#1BA076"/>
<path id="Path_2" d="M11.5162 15.4842L13.6087 13.3992C13.8487 13.1667 13.6762 12.7617 13.3462 12.7617L12.0037 12.7617L12.0037 8.2467C12.0037 7.8342 11.6662 7.4967 11.2537 7.4967C10.8412 7.4967 10.5037 7.8342 10.5037 8.2467L10.5037 12.7542L9.16116 12.7542C8.82366 12.7542 8.65866 13.1592 8.89866 13.3917L10.9912 15.4767C11.1337 15.6267 11.3737 15.6267 11.5162 15.4842Z" fill="#BFD7CF"/>
</g>
</svg>
