<svg width="18" height="18" viewBox="0 0 18 18" fill="none" xmlns="http://www.w3.org/2000/svg">
<g id="icon/action/swap_horiz_24px">
<path id="Path" d="M9.10901 4.60154L7.01651 2.51654C6.86651 2.37404 6.63401 2.37404 6.48401 2.51654L4.39151 4.60154C4.15151 4.83404 4.32401 5.23904 4.654 5.23904L6.00401 5.23904L6.00401 9.74654C6.00401 10.159 6.34151 10.4965 6.75401 10.4965C7.1665 10.4965 7.50401 10.159 7.50401 9.74654L7.50401 5.23904L8.84651 5.23904C9.18401 5.23904 9.34901 4.83404 9.10901 4.60154Z" fill="#BFD7CF"/>
<path id="Path_2" d="M11.5162 15.4841L13.6087 13.3991C13.8487 13.1666 13.6762 12.7616 13.3462 12.7616L12.0037 12.7616L12.0037 8.24658C12.0037 7.83408 11.6662 7.49658 11.2537 7.49658C10.8412 7.49658 10.5037 7.83408 10.5037 8.24658L10.5037 12.7541L9.16116 12.7541C8.82366 12.7541 8.65866 13.1591 8.89866 13.3916L10.9912 15.4766C11.1337 15.6266 11.3737 15.6266 11.5162 15.4841Z" fill="#1BA076"/>
</g>
</svg>
