<svg width="20" height="22" viewBox="0 0 20 22" fill="none" xmlns="http://www.w3.org/2000/svg">
<path d="M6.40005 4.2H9.60004C11.2 4.2 11.2 3.4 11.2 2.6C11.2 1 10.4 1 9.60004 1H6.40005C5.60005 1 4.80005 1 4.80005 2.6C4.80005 4.2 5.60005 4.2 6.40005 4.2Z" stroke="#04261C" stroke-width="1.5" stroke-miterlimit="10" stroke-linecap="round" stroke-linejoin="round"/>
<path d="M11.2 2.61621C13.864 2.76021 15.2 3.74421 15.2 7.40021V9.5M7.5 17.0002L5.60004 17.0002C1.60005 17.0002 0.800049 15.4002 0.800049 12.2002V7.40021C0.800049 3.75221 2.13605 2.76021 4.80005 2.61621" stroke="#04261C" stroke-width="1.5" stroke-miterlimit="10" stroke-linecap="round" stroke-linejoin="round"/>
<path d="M15 21V13" stroke="#04261C" stroke-width="1.5" stroke-miterlimit="10" stroke-linecap="round" stroke-linejoin="round"/>
<path d="M19 17H11" stroke="#04261C" stroke-width="1.5" stroke-miterlimit="10" stroke-linecap="round" stroke-linejoin="round"/>
</svg>
